<?xml version="1.0" encoding="UTF-8" standalone="no"?>
<!-- Uploaded to: SVG Repo, www.svgrepo.com, Generator: SVG Repo Mixer Tools -->

<svg
   fill="#000000"
   width="40"
   height="33.724869"
   viewBox="0 0 40 33.724869"
   role="img"
   version="1.1"
   id="svg6"
   sodipodi:docname="freecodecamp.svg"
   inkscape:version="1.2.1 (9c6d41e410, 2022-07-14)"
   xmlns:inkscape="http://www.inkscape.org/namespaces/inkscape"
   xmlns:sodipodi="http://sodipodi.sourceforge.net/DTD/sodipodi-0.dtd"
   xmlns="http://www.w3.org/2000/svg"
   xmlns:svg="http://www.w3.org/2000/svg"
   xmlns:rdf="http://www.w3.org/1999/02/22-rdf-syntax-ns#"
   xmlns:cc="http://creativecommons.org/ns#"
   xmlns:dc="http://purl.org/dc/elements/1.1/">
  <defs
     id="defs10" />
  <sodipodi:namedview
     id="namedview8"
     pagecolor="#505050"
     bordercolor="#ffffff"
     borderopacity="1"
     inkscape:showpageshadow="0"
     inkscape:pageopacity="0"
     inkscape:pagecheckerboard="1"
     inkscape:deskcolor="#505050"
     showgrid="false"
     inkscape:zoom="8.37"
     inkscape:cx="11.409797"
     inkscape:cy="34.647551"
     inkscape:window-width="1904"
     inkscape:window-height="1001"
     inkscape:window-x="-8"
     inkscape:window-y="0"
     inkscape:window-maximized="0"
     inkscape:current-layer="svg6" />
  <title
     id="title2">freeCodeCamp icon</title>
  <path
     d="m 31.42702,0 c -0.265673,0.00561 -0.523173,0.092904 -0.737497,0.249999 -0.166666,0.166666 -0.335415,0.4083318 -0.335415,0.6520809 0,0.416665 0.491664,0.9874961 1.402077,1.9229091 3.795819,3.654152 5.704144,8.131219 5.691644,13.529114 -0.01459,5.972894 -2.020825,10.770791 -5.924976,14.487444 -0.82083,0.735413 -1.158329,1.312495 -1.160413,1.806242 0,0.241666 0.166667,0.493749 0.333333,0.735414 0.158332,0.166666 0.493747,0.337499 0.735414,0.337499 0.904162,0 2.166657,-1.066663 3.818735,-3.143738 3.212487,-3.937485 4.666649,-8.287467 4.747897,-14.216611 C 40.072819,10.429126 38.21241,6.408308 34.574924,2.2562413 33.262429,0.7729136 32.17285,0.0020834 31.42702,0 Z M 8.5750638,0.00416 c -0.74583,0 -1.837492,0.7708304 -3.1458207,2.2562413 C 1.7875905,6.412473 -0.07281892,10.433291 0.00218088,16.364517 0.08551388,22.29366 1.5375915,26.641561 4.7521623,30.58113 c 1.6479105,2.077075 2.9124885,3.14582 3.8166525,3.143737 0.276219,-0.02392 0.535496,-0.143252 0.73333,-0.337499 0.166666,-0.241667 0.333331,-0.493748 0.333331,-0.735414 0,-0.493749 -0.337498,-1.07083 -1.158328,-1.80416 -3.9020681,-3.718735 -5.9103936,-8.51455 -5.9249769,-14.489527 -0.0125,-5.397896 1.895826,-9.874962 5.6916439,-13.5291138 0.910414,-0.935413 1.404161,-1.5041608 1.402079,-1.9229092 0,-0.2437491 -0.166666,-0.4854147 -0.335416,-0.6520809 C 9.0961538,0.09707 8.8386538,0.0097819 8.5729808,0.0041666 Z m 9.6999442,1.8645803 c 0,0 1.364577,4.3354007 -5.518729,14.0145287 -6.5749752,9.235381 2.177075,14.895776 2.983321,15.38744 -0.585414,-0.374999 -4.168734,-3.124988 0.837498,-11.297872 0.970828,-1.60416 2.241657,-3.062488 3.820817,-6.335393 0,0 1.395829,1.970827 0.666665,6.245811 -1.08958,6.460391 4.731232,4.61248 4.820814,4.702065 2.033325,2.395823 -1.683326,6.60414 -1.910409,6.73539 -0.225,0.127082 10.616625,-6.520808 2.914572,-16.531187 -0.527082,0.527083 -1.212495,3.004155 -2.639573,2.63749 C 22.824989,17.064514 28.67705,10.147876 18.275008,1.8687403 Z M 15.7396,31.270712 c 0.04791,0.03334 0.07916,0.05 0.07916,0.05 z"
     id="path4"
     style="fill:#ffffff;fill-opacity:1;stroke-width:2.08332"
     sodipodi:nodetypes="ccscccccsccccccccccsccccccccccccccccccccc" />
  <metadata
     id="metadata239">
    <rdf:RDF>
      <cc:Work
         rdf:about="">
        <dc:title>freeCodeCamp icon</dc:title>
      </cc:Work>
    </rdf:RDF>
  </metadata>
</svg>
