<?xml version="1.0" encoding="UTF-8" standalone="no"?>
<!-- Uploaded to: SVG Repo, www.svgrepo.com, Generator: SVG Repo Mixer Tools -->

<svg
   width="40"
   height="43.486847"
   viewBox="0 0 40 43.486847"
   fill="none"
   version="1.1"
   id="svg6"
   sodipodi:docname="github.svg"
   inkscape:version="1.2.1 (9c6d41e410, 2022-07-14)"
   xmlns:inkscape="http://www.inkscape.org/namespaces/inkscape"
   xmlns:sodipodi="http://sodipodi.sourceforge.net/DTD/sodipodi-0.dtd"
   xmlns="http://www.w3.org/2000/svg"
   xmlns:svg="http://www.w3.org/2000/svg">
  <defs
     id="defs10" />
  <sodipodi:namedview
     id="namedview8"
     pagecolor="#505050"
     bordercolor="#ffffff"
     borderopacity="1"
     inkscape:showpageshadow="0"
     inkscape:pageopacity="0"
     inkscape:pagecheckerboard="1"
     inkscape:deskcolor="#505050"
     showgrid="false"
     inkscape:zoom="2.9592419"
     inkscape:cx="-3.5482061"
     inkscape:cy="-4.7309414"
     inkscape:window-width="1904"
     inkscape:window-height="1001"
     inkscape:window-x="-8"
     inkscape:window-y="0"
     inkscape:window-maximized="0"
     inkscape:current-layer="svg6" />
  <path
     d="M 5.0771947,4.0325862 C 5.1920296,2.0011543 5.6772825,1.1177756 7.0688495,0.40839447 8.5661597,-0.35512254 10.92772,1.9513045e-4 13.706555,1.4073575 c 1.196902,0.6063787 1.318777,0.618724 3.416373,0.3497899 2.788143,-0.3575994 6.377547,-0.3563373 8.95093,0.00327 1.94606,0.2719514 2.073851,0.2583637 3.273672,-0.3492772 3.94438,-1.99743503 7.05851,-1.86674254 8.186152,0.3434792 0.562835,1.1032275 0.667356,3.965896 0.230932,6.3269631 -0.241975,1.3089553 -0.216338,1.4723833 0.366612,2.3313475 4.101359,6.043928 1.14618,15.840787 -5.881763,19.496847 -0.53779,0.27984 -0.990976,0.45299 -1.360349,0.593994 -1.13415,0.433072 -1.478477,0.56461 -1.061577,2.558001 0.200759,0.95883 0.442537,3.342695 0.537592,5.297827 0.171769,3.533988 0.169206,3.558639 -0.450623,4.279636 -0.843661,0.980721 -2.059652,0.997286 -2.883592,0.03924 -0.537395,-0.624758 -0.589853,-0.919783 -0.589853,-3.330271 0,-3.562189 -0.390474,-5.929882 -1.313019,-7.95877 -1.097074,-2.414432 -0.283784,-3.314692 2.225111,-3.854256 3.48725,-0.750184 6.210906,-2.902327 7.729022,-6.107174 1.443374,-3.046487 1.660896,-7.256488 -0.948576,-9.816914 -0.742098,-0.88188 -0.793767,-1.6806562 -0.263866,-4.0893095 0.197998,-0.9002401 0.364048,-2.0616443 0.368978,-2.5811524 0.0075,-0.8204296 -0.06725,-0.9443164 -0.571117,-0.9443164 -0.318887,0 -1.537246,0.4638557 -2.70709,1.030694 l -1.867177,0.9049929 c -0.169797,0.082256 -0.359709,0.1138883 -0.547058,0.092392 -4.747811,-0.5449679 -9.259168,-0.5533887 -14.030209,0.00213 -0.188059,0.02189 -0.37882,-0.00974 -0.549169,-0.092412 L 12.100701,5.0285319 C 10.930738,4.4606681 9.7124387,3.9963194 9.3936497,3.9963194 c -0.737089,0 -0.748172,0.544179 -0.07632,3.7772852 0.410412,1.9745572 0.6865843,2.4145304 -0.499846,3.9933674 -1.7783536,2.366589 -2.2225673,5.305321 -1.2689229,8.392986 1.2019309,3.890936 4.1451992,6.519537 8.2831012,7.396526 2.494439,0.528718 3.146413,1.218556 2.193892,4.078878 -0.749789,2.250945 -1.22388,2.831134 -2.31352,2.831134 -1.466092,0 -2.384475,-1.270027 -1.879068,-2.599019 0.22261,-0.585711 0.156387,-0.648227 -1.217037,-1.149138 C 8.4233807,29.189771 5.2167005,25.763656 3.7506081,21.245988 2.6174245,17.754479 3.1160284,13.209892 4.9339222,10.463045 5.5528829,9.5277798 5.5624673,9.4484628 5.273615,7.6580203 5.1101878,6.6444638 5.0217986,5.0131693 5.0771947,4.0325862 Z"
     fill="#0F0F0F"
     id="path2"
     style="fill:#ffffff;fill-opacity:1;stroke-width:1.97209" />
  <path
     d="m 3.613173,29.574329 c -0.6041503,-0.906176 -1.8285628,-1.15111 -2.73479813,-0.546861 -0.9062155,0.604051 -1.1511099,1.828523 -0.5469596,2.734699 0.446028,0.669131 0.97961683,1.218753 1.43274433,1.671742 0.083538,0.08362 0.1647091,0.164275 0.2439675,0.242962 0.3795684,0.377064 0.7147057,0.709953 1.0513023,1.10516 0.7444843,0.873834 1.4871938,2.050778 1.9093003,4.161311 0.1880192,0.940096 0.8637564,1.446529 1.2381777,1.667798 0.4060537,0.239806 0.8497151,0.381205 1.2148085,0.473302 0.7468508,0.188334 1.6534808,0.28615 2.5139038,0.343144 0.9445533,0.06271 1.9680103,0.08302 2.8831983,0.08855 6.71e-4,1.088398 0.88334,1.970712 1.972072,1.970712 1.089167,0 1.972092,-0.882906 1.972092,-1.972092 v -1.972092 c 0,-1.089186 -0.882925,-1.972091 -1.972092,-1.972091 -0.185909,0 -0.387042,5.91e-4 -0.600088,0.0014 -1.157341,0.0036 -2.665893,0.0081 -3.994491,-0.07987 C 9.5556377,37.449703 9.0289707,37.389555 8.6427557,37.315996 8.0480127,34.981212 7.08719,33.427796 6.0619192,32.224228 5.6086931,31.692355 5.1393748,31.226941 4.757637,30.8483 4.6861684,30.777502 4.6177762,30.709662 4.5531113,30.644977 4.1126447,30.204609 3.8245221,29.891441 3.613173,29.574329 Z"
     fill="#0F0F0F"
     id="path4"
     style="fill:#ffffff;fill-opacity:1;stroke-width:1.97209" />
</svg>
