<?xml version="1.0" encoding="UTF-8" standalone="no"?>
<!-- Uploaded to: SVG Repo, www.svgrepo.com, Generator: SVG Repo Mixer Tools -->

<svg
   width="40"
   height="40"
   viewBox="0 0 40 40"
   fill="none"
   version="1.1"
   id="svg4"
   sodipodi:docname="web.svg"
   inkscape:version="1.2.1 (9c6d41e410, 2022-07-14)"
   xmlns:inkscape="http://www.inkscape.org/namespaces/inkscape"
   xmlns:sodipodi="http://sodipodi.sourceforge.net/DTD/sodipodi-0.dtd"
   xmlns="http://www.w3.org/2000/svg"
   xmlns:svg="http://www.w3.org/2000/svg">
  <defs
     id="defs8" />
  <sodipodi:namedview
     id="namedview6"
     pagecolor="#505050"
     bordercolor="#ffffff"
     borderopacity="1"
     inkscape:showpageshadow="0"
     inkscape:pageopacity="0"
     inkscape:pagecheckerboard="1"
     inkscape:deskcolor="#505050"
     showgrid="false"
     inkscape:zoom="2.0925"
     inkscape:cx="-118.27957"
     inkscape:cy="110.39427"
     inkscape:window-width="1904"
     inkscape:window-height="1001"
     inkscape:window-x="-8"
     inkscape:window-y="0"
     inkscape:window-maximized="0"
     inkscape:current-layer="svg4" />
  <path
     fill-rule="evenodd"
     clip-rule="evenodd"
     d="m 15.196089,34.326 c 0.382355,0.716667 0.765244,1.362444 1.131244,1.934667 -3.888555,-0.874445 -7.262755,-3.108 -9.5975997,-6.175556 1.5409557,-0.867778 3.5145997,-1.767333 5.8872887,-2.425555 0.674356,2.644888 1.625734,4.878888 2.579067,6.666444 z m 2.941244,-1.568667 C 17.309111,31.204667 16.479111,29.265556 15.881111,26.968 c 1.287333,-0.191111 2.661556,-0.301333 4.119111,-0.301333 1.457334,0 2.831556,0.110222 4.118667,0.301111 -0.598,2.297778 -1.428,4.236889 -2.256222,5.789555 -0.664,1.245111 -1.325556,2.239111 -1.862667,2.966445 -0.537111,-0.727334 -1.198667,-1.721334 -1.862667,-2.966445 z M 15,20 c 0,1.298 0.08733,2.53 0.241333,3.693111 1.485111,-0.227778 3.072889,-0.359778 4.758889,-0.359778 1.685778,0 3.273556,0.131778 4.758445,0.359778 C 24.912667,22.529778 25,21.298 25,20 c 0,-1.298 -0.08733,-2.529778 -0.241333,-3.693111 -1.484889,0.227778 -3.072667,0.359778 -4.758445,0.359778 -1.686,0 -3.273778,-0.132 -4.758889,-0.359778 C 15.087333,17.47 15,18.702 15,20 Z M 11.970844,15.619556 C 11.777267,16.995111 11.666667,18.456444 11.666667,20 c 0,1.543556 0.1106,3.004889 0.304177,4.380444 -2.83,0.759778 -5.1734662,1.831112 -6.9858662,2.862 C 3.9266222,25.052444 3.3333333,22.595556 3.3333333,20 c 0,-2.595556 0.5932889,-5.052356 1.6516223,-7.242489 1.8122,1.030756 4.1557114,2.102178 6.9858884,2.862045 z m 3.910267,-2.587445 c 1.287333,0.191045 2.661556,0.301222 4.119111,0.301222 1.457334,0 2.831556,-0.110155 4.118667,-0.301177 -0.598,-2.2976 -1.428,-4.236756 -2.256222,-5.789489 C 21.198667,5.9976444 20.537111,5.0034667 20,4.2762667 c -0.537111,0.7272 -1.198667,1.7213777 -1.862667,2.9663553 -0.828222,1.552734 -1.658222,3.491889 -2.256222,5.789489 z m 12.148,2.587667 c 0.193556,1.375555 0.304222,2.836889 0.304222,4.380222 0,1.543556 -0.110666,3.004667 -0.304222,4.380222 2.83,0.76 5.173556,1.831334 6.986,2.862222 1.058222,-2.190222 1.651556,-4.647111 1.651556,-7.242444 0,-2.595333 -0.593334,-5.052289 -1.651556,-7.242378 -1.812222,1.030756 -4.155778,2.102156 -6.986,2.862156 z m 5.241111,-5.704711 c -1.541111,0.867844 -3.514666,1.767266 -5.887111,2.425555 C 26.708667,9.695644 25.757333,7.461533 24.804,5.6740444 24.421556,4.9572667 24.038667,4.3116667 23.672667,3.7393333 27.561333,4.6138444 30.935556,6.8474667 33.270222,9.915067 Z M 12.617,12.340556 C 10.244467,11.682244 8.270889,10.782822 6.7297556,9.914956 9.064578,6.8474222 12.438778,4.6138444 16.327111,3.7393333 15.961333,4.3116667 15.578444,4.9572444 15.196067,5.674 14.242756,7.461489 13.291378,9.695578 12.617,12.340556 Z M 27.383111,27.659333 C 26.708667,30.304444 25.757333,32.538444 24.804,34.326 c -0.382444,0.716667 -0.765333,1.362444 -1.131333,1.934667 3.888666,-0.874445 7.262889,-3.108223 9.597777,-6.175778 -1.541111,-0.867778 -3.514666,-1.767111 -5.887333,-2.425556 z M 20,40 C 31.045778,40 40,31.045778 40,20 40,8.954311 31.045778,0 20,0 8.954311,0 0,8.954311 0,20 0,31.045778 8.954311,40 20,40 Z"
     fill="#080341"
     id="path2"
     style="fill:#ffffff;fill-opacity:1;stroke-width:2.22222" />
</svg>
